# xmcd
#
# Track frame offsets:
#	150
#	15372
#	27579
#	39968
#	50675
#	61409
#	73154
#	86319
#	97953
#	109233
#	121459
#	133711
#	147358
#	160955
#	173792
#	186374
#	198524
#	212108
#	224148
#	235534
#	249133
#	262474
#	273598
#	285067
#	296695
#	307094
#	319169
#	330677
#
# Disc length: 4560 seconds
#
# Revision: 1
# Processed by: cddbd v1.5.2PL0 Copyright (c) Steve Scherf et al.
# Submitted via: audiograbber 1.83.01
#
DISCID=b111ce1c
DTITLE=Various Artist - Dim Lights, Thick Smoke And Hillbilly Music Country and 
DTITLE=Western Hit Parade 1953
DYEAR=1953
DGENRE=Country
TTITLE0=Jack Cardwell - The Death Of Hank Williams
TTITLE1=Faron Young - Goin' Steady
TTITLE2=Hank Williams - Your Cheatin' Heart
TTITLE3=Johnnie and Jack - South In New Orleans
TTITLE4=Webb Pierce - It's Been So Long
TTITLE5=Johnny Bond - Let Me Go, Devil
TTITLE6=Red Cook - Playin' Dominoes And Shootin' Dice
TTITLE7=Hank SNow - (Now And Then There's) A Fool Such As I
TTITLE8=The Carlisles - No Help Wanted
TTITLE9=Marty Robbins - I'll Go On Alone
TTITLE10=Arlie Duff - You All Come
TTITLE11=The Davis Sisters - I Forgot More Than You'll Ever Know
TTITLE12=Lefty Frizzell - California Blues (Blue Yodel #4)
TTITLE13=Link Davis - Big Mamou
TTITLE14=Tommy Duncan - Hound Dog
TTITLE15=Onie Wheeler - Run 'em Off
TTITLE16=Darrell Glenn - Crying In The Chapel
TTITLE17=Jim Reeves - Mexican Joe
TTITLE18=Hank Locklin - Let Me Be The One
TTITLE19=Joe and Rose Lee Maphis - Dim Lights, Thick Smoke (And Loud, Loud Music)
TTITLE20=Rudy Grayzell - Looking At The Moon And Wishing On A Star
TTITLE21=Webb Pierce - There Stands The Glass
TTITLE22=Carl Smith - Hey Joe!
TTITLE23=Merrill Moore - Red Light
TTITLE24=Chet Atkins - Country Gentleman
TTITLE25=Hank Williams - Take These Chains from My Heart
TTITLE26=Mitchel Torok - Caribbean
TTITLE27=Jean Shepard and Ferlin Husky - A Dear John Letter
EXTD=
EXTT0=
EXTT1=
EXTT2=
EXTT3=
EXTT4=
EXTT5=
EXTT6=
EXTT7=
EXTT8=
EXTT9=
EXTT10=
EXTT11=
EXTT12=
EXTT13=
EXTT14=
EXTT15=
EXTT16=
EXTT17=
EXTT18=
EXTT19=
EXTT20=
EXTT21=
EXTT22=
EXTT23=
EXTT24=
EXTT25=
EXTT26=
EXTT27=
PLAYORDER=
